<svg id="Grupo_65" data-name="Grupo 65" xmlns="http://www.w3.org/2000/svg" width="31.591" height="19.796" viewBox="0 0 31.591 19.796">
  <g id="Grupo_64" data-name="Grupo 64" transform="translate(0 0)">
    <g id="Grupo_63" data-name="Grupo 63">
      <path id="Trazado_237" data-name="Trazado 237" d="M-473.429,9.688a11.926,11.926,0,0,1,2.535.246,5.512,5.512,0,0,1,1.963.8,3.758,3.758,0,0,1,1.268,1.482,5.221,5.221,0,0,1,.445,2.28,4.264,4.264,0,0,1-.666,2.449,4.835,4.835,0,0,1-1.983,1.6,4.64,4.64,0,0,1,2.669,1.81,5.4,5.4,0,0,1,.879,3.119,5.382,5.382,0,0,1-.566,2.547,4.961,4.961,0,0,1-1.537,1.759,6.769,6.769,0,0,1-2.211,1.008,9.866,9.866,0,0,1-2.539.327h-9.418V9.688Zm-.553,7.85a3.1,3.1,0,0,0,1.883-.545,2.042,2.042,0,0,0,.731-1.767,2.305,2.305,0,0,0-.238-1.115,1.765,1.765,0,0,0-.659-.676,2.663,2.663,0,0,0-.942-.341,5.709,5.709,0,0,0-1.1-.1h-4v4.54Zm.236,8.272a5.458,5.458,0,0,0,1.2-.123,2.834,2.834,0,0,0,1.008-.412,2.055,2.055,0,0,0,.7-.775,2.688,2.688,0,0,0,.256-1.26,2.537,2.537,0,0,0-.842-2.144,3.612,3.612,0,0,0-2.231-.637h-4.651V25.81Z" transform="translate(482.59 -9.688)" fill="#c1b1e3"/>
      <path id="Trazado_238" data-name="Trazado 238" d="M-403.2,41.885a3.439,3.439,0,0,0,2.5.85,3.444,3.444,0,0,0,2.018-.59,2.484,2.484,0,0,0,1.033-1.247h3.4a6.458,6.458,0,0,1-2.509,3.63,7.307,7.307,0,0,1-4.074,1.1,8.1,8.1,0,0,1-3-.533,6.379,6.379,0,0,1-2.272-1.513,6.922,6.922,0,0,1-1.429-2.345,8.6,8.6,0,0,1-.505-3,8.261,8.261,0,0,1,.52-2.943,6.919,6.919,0,0,1,1.474-2.358,6.985,6.985,0,0,1,2.28-1.569,7.314,7.314,0,0,1,2.934-.573,6.66,6.66,0,0,1,3.127.7,6.222,6.222,0,0,1,2.194,1.865,7.628,7.628,0,0,1,1.237,2.671,9.963,9.963,0,0,1,.269,3.132h-10.153A3.94,3.94,0,0,0-403.2,41.885Zm4.44-7.393a2.891,2.891,0,0,0-2.186-.783,3.32,3.32,0,0,0-1.538.316,3.1,3.1,0,0,0-.979.775,2.772,2.772,0,0,0-.518.992,4.388,4.388,0,0,0-.176.927h6.288A3.763,3.763,0,0,0-398.765,34.493Z" transform="translate(425.575 -25.828)" fill="#c1b1e3"/>
      <rect id="Rectángulo_34" data-name="Rectángulo 34" width="7.877" height="1.918" transform="translate(20.623 1.303)" fill="#c1b1e3"/>
    </g>
  </g>
</svg>
