<svg id="Grupo_62" data-name="Grupo 62" xmlns="http://www.w3.org/2000/svg" width="20.046" height="19.991" viewBox="0 0 20.046 19.991">
  <g id="Grupo_61" data-name="Grupo 61" transform="translate(0 0)">
    <path id="Trazado_234" data-name="Trazado 234" d="M-570.181,38.235c.278-.312.507-.629.792-.9a4.346,4.346,0,0,1,3.126-1.233,7.235,7.235,0,0,1,1.965.239,3.842,3.842,0,0,1,2.728,2.869,12.02,12.02,0,0,1,.363,3.287c0,2.336-.007,4.673,0,7.009,0,.219-.061.276-.276.274q-1.806-.015-3.611,0c-.212,0-.258-.064-.257-.264q.01-3.335,0-6.67a6.006,6.006,0,0,0-.194-1.656,1.862,1.862,0,0,0-2.048-1.451,2.237,2.237,0,0,0-2.352,2.234,8.32,8.32,0,0,0-.064,1.043c0,2.162,0,4.324.006,6.486,0,.216-.053.279-.274.277q-1.818-.016-3.637,0c-.194,0-.25-.051-.25-.248q.008-6.421,0-12.842c0-.212.069-.261.27-.259q1.727.013,3.454,0c.212,0,.267.067.262.267C-570.189,37.211-570.181,37.723-570.181,38.235Z" transform="translate(581.251 -29.793)" fill="#c1b1e3"/>
    <path id="Trazado_235" data-name="Trazado 235" d="M-598.792,44.2c0,2.118,0,4.236,0,6.353,0,.235-.058.306-.3.3-1.2-.013-2.406-.01-3.609,0-.193,0-.251-.047-.251-.246q.008-6.432,0-12.863c0-.177.043-.241.231-.239,1.221.008,2.441.01,3.662,0,.234,0,.266.089.266.29Q-598.8,40.992-598.792,44.2Z" transform="translate(603.266 -30.861)" fill="#c1b1e3"/>
    <path id="Trazado_236" data-name="Trazado 236" d="M-599.5,11.663a2.411,2.411,0,0,1-2.4,2.413,2.419,2.419,0,0,1-2.4-2.393,2.415,2.415,0,0,1,2.407-2.412A2.411,2.411,0,0,1-599.5,11.663Z" transform="translate(604.302 -9.272)" fill="#c1b1e3"/>
  </g>
</svg>
