<svg id="Grupo_60" data-name="Grupo 60" xmlns="http://www.w3.org/2000/svg" width="19.991" height="19.991" viewBox="0 0 19.991 19.991">
  <g id="Grupo_59" data-name="Grupo 59" transform="translate(0 0)">
    <path id="Trazado_232" data-name="Trazado 232" d="M-715.785,11.073c2.669,0,2.985.01,4.039.058a5.532,5.532,0,0,1,1.856.344,3.1,3.1,0,0,1,1.149.748,3.1,3.1,0,0,1,.748,1.149,5.531,5.531,0,0,1,.344,1.856c.048,1.054.058,1.37.058,4.039s-.01,2.985-.058,4.039a5.531,5.531,0,0,1-.344,1.856,3.1,3.1,0,0,1-.748,1.149,3.1,3.1,0,0,1-1.149.748,5.532,5.532,0,0,1-1.856.344c-1.054.048-1.37.058-4.039.058s-2.985-.01-4.039-.058a5.532,5.532,0,0,1-1.856-.344,3.1,3.1,0,0,1-1.149-.748,3.1,3.1,0,0,1-.748-1.149,5.532,5.532,0,0,1-.344-1.856c-.048-1.054-.058-1.37-.058-4.039s.01-2.985.058-4.039a5.532,5.532,0,0,1,.344-1.856,3.1,3.1,0,0,1,.748-1.149,3.1,3.1,0,0,1,1.149-.748,5.532,5.532,0,0,1,1.856-.344c1.054-.048,1.37-.058,4.039-.058m0-1.8c-2.715,0-3.055.012-4.121.06a7.332,7.332,0,0,0-2.426.465,4.9,4.9,0,0,0-1.77,1.153,4.9,4.9,0,0,0-1.153,1.77,7.334,7.334,0,0,0-.465,2.426c-.049,1.066-.06,1.406-.06,4.121s.012,3.055.06,4.121a7.335,7.335,0,0,0,.465,2.426,4.9,4.9,0,0,0,1.153,1.77,4.9,4.9,0,0,0,1.77,1.153,7.338,7.338,0,0,0,2.426.465c1.066.048,1.406.06,4.121.06s3.055-.012,4.121-.06a7.339,7.339,0,0,0,2.426-.465,4.9,4.9,0,0,0,1.77-1.153,4.9,4.9,0,0,0,1.153-1.77,7.339,7.339,0,0,0,.465-2.426c.048-1.066.06-1.406.06-4.121s-.012-3.055-.06-4.121a7.339,7.339,0,0,0-.465-2.426,4.895,4.895,0,0,0-1.153-1.77,4.9,4.9,0,0,0-1.77-1.153,7.333,7.333,0,0,0-2.426-.465c-1.066-.049-1.406-.06-4.121-.06Z" transform="translate(725.781 -9.272)" fill="#c1b1e3"/>
    <path id="Trazado_233" data-name="Trazado 233" d="M-699.972,29.948a5.133,5.133,0,0,0-5.133,5.133,5.133,5.133,0,0,0,5.133,5.133,5.133,5.133,0,0,0,5.133-5.133A5.133,5.133,0,0,0-699.972,29.948Zm0,8.465a3.332,3.332,0,0,1-3.332-3.332,3.332,3.332,0,0,1,3.332-3.332,3.332,3.332,0,0,1,3.332,3.332A3.332,3.332,0,0,1-699.972,38.413Z" transform="translate(709.968 -25.085)" fill="#c1b1e3"/>
    <circle id="Elipse_2" data-name="Elipse 2" cx="1.199" cy="1.199" r="1.199" transform="translate(14.132 3.461)" fill="#c1b1e3"/>
  </g>
</svg>
