<svg id="Capa_1" data-name="Capa 1" xmlns="http://www.w3.org/2000/svg" viewBox="0 0 741.9 321.4"><defs><style>.cls-1{fill:#bab5db;}</style></defs><path class="cls-1" d="M621.5,138.1l-37.1-.9a22,22,0,0,0,21.5,22l15.2.4h.3c81.5,0,147.8,58.3,147.8,130.1S702.9,419.8,621.4,419.8H548.1c13.5-14.1,18.7-33.9,11.5-55.2-11.2-33.5-43.3-46.9-77.4-36.9-32.2,9.4-50.7,35.5-44.3,65.9-6-14.3-23-20.3-33.1-24.2l-9-3c-13.2-4.7-27-9.4-27-21.7,0-9.2,8.1-16.6,23-16.6,17.2,0,26.6,23.6,35.5,27.3L434,333a103.8,103.8,0,0,0-38.9-7.7c-30,0-46,15.7-46,34.1,0,21.7,22.3,29.9,35.3,34.6l9.2,3.3c13.8,4.9,26.7,9.8,26.7,22s-9.2,18-25.6,18c-18.5,0-25.6-24.8-40.6-26.8l-6.8,21.3a118.8,118.8,0,0,0,44.1,8.4c32.4,0,48.7-16.4,48.7-35.4a27.7,27.7,0,0,0-.3-4.2.4.4,0,0,0,.1.3c9.6,28.6,34.3,42.5,62.6,39.8l118.9.6c93.9,0,170.3-68,170.3-151.6S715.4,138.2,621.5,138.1ZM472.2,390.4c-10.5-31.3-8.8-54.3,9.6-59.6s35,13.1,45.6,44.7h0c10.4,30.8,8.5,53.9-9.9,59.3S482.7,421.8,472.2,390.4Zm33,50h0Z" transform="translate(-49.8 -137.2)"/><path class="cls-1" d="M304.5,217.8c0-53.1-42.5-80.6-102.7-80.6H134V301.1h60.4C257.9,301.1,304.5,270.5,304.5,217.8Zm-130.9-77h26.5c38.5,0,61.2,31.3,61.2,77.7,0,50.4-20.5,79-59.5,79a116.2,116.2,0,0,1-28.2-2Z" transform="translate(-49.8 -137.2)"/><path class="cls-1" d="M329.3,174.2a16.6,16.6,0,0,0,7-.3,16.2,16.2,0,1,0-19.7-11.6A15.9,15.9,0,0,0,329.3,174.2Z" transform="translate(-49.8 -137.2)"/><path class="cls-1" d="M316.4,191.3V301.1h32.2V274c3.7,16.5,20.5,27.1,45,27.1a67.7,67.7,0,0,0,38.8-11.5,20.9,20.9,0,0,0,20.8,10.7,50.3,50.3,0,0,0,21.9-5.1h31V203.9a36.1,36.1,0,0,1,25.5-11.7c20.4,0,20.6,19.2,20.6,26.8v76.3h32.2V275.1c4.2,15.9,20.9,26,44.8,26A67.9,67.9,0,0,0,668,289.6a20.8,20.8,0,0,0,20.8,10.7,49.6,49.6,0,0,0,24.6-6.6v-1.2a20.9,20.9,0,0,1-4.3.4c-10.6-.1-10.5-5.8-10.4-15.7l.4-39.1a52.3,52.3,0,0,0-46-52.4A51.1,51.1,0,0,0,611,198.5l4.4,5.5a27.3,27.3,0,0,1,11.9-4.4,31.4,31.4,0,0,1,7.5,0h.1l2.4.4.4.2a7.5,7.5,0,0,1,6,7.3c0,16.2-51.2,22.9-59.3,51.5V221.9c0-26.8-14-39.1-38.6-39.1A54.4,54.4,0,0,0,506.1,200l-2,1.7a17.3,17.3,0,0,1-24.1-3.8h-6.1v95h-.4c-10.5-.1-10.5-5.8-10.4-15.7l.4-39.1a52.2,52.2,0,0,0-46-52.4,51.2,51.2,0,0,0-42.1,12.8l4.4,5.5a27.3,27.3,0,0,1,11.9-4.4,31.4,31.4,0,0,1,7.5,0h.2l2.3.4.5.2a7.5,7.5,0,0,1,5.9,7.3c0,16.4-52.5,23-59.5,52.6V221.3A31.2,31.2,0,0,0,316.4,191.3Zm334.3,18.3c0-7.8-6.2-11.8-14.1-12.7,3.6-5.5,7.5-9.2,13.5-8.4,15.1,1.9,16.4,18.5,16.6,45.1h0l-.3,51v.2a41.9,41.9,0,0,1-19.6,4.9c-17.6,0-28.6-10.2-28.6-25.7C618.2,237.8,650.7,227.4,650.7,209.6Zm-235.6,0c0-7.8-6.2-11.8-14.1-12.7,3.7-5.5,7.5-9.2,13.5-8.4,15.2,1.9,16.4,18.5,16.6,45.1h0l-.3,51v.2a41.9,41.9,0,0,1-19.6,4.9c-17.6,0-28.5-10.2-28.5-25.7C382.7,237.8,415.1,227.4,415.1,209.6Z" transform="translate(-49.8 -137.2)"/><path class="cls-1" d="M82.5,383c0,37.6-3.5,56.4-32.7,73.2l1.5,2.4c32.5-12,65.8-27.4,65.8-77.2V279.1H82.5Z" transform="translate(-49.8 -137.2)"/><path class="cls-1" d="M311.6,369.4l-9-3c-13.2-4.7-27.1-9.4-27.1-21.7,0-9.2,8.2-16.6,23.1-16.6,17.1,0,26.6,23.6,35.4,27.3l6.7-22.4a103.2,103.2,0,0,0-38.8-7.7c-30.1,0-46.1,15.7-46.1,34.1,0,21.7,22.4,29.9,35.3,34.6l9.2,3.3c13.8,4.9,26.8,9.8,26.8,22s-9.2,18-25.7,18c-18.4,0-25.6-24.8-40.5-26.8l-6.8,21.3v-.2l-4.4.3c-10.5-.1-10.5-5.8-10.4-15.6l.4-39.2a52.1,52.1,0,0,0-46-52.3,50.5,50.5,0,0,0-42.1,12.8L156,343a30,30,0,0,1,12-4.4,30.5,30.5,0,0,1,7.4,0h.2a10.6,10.6,0,0,1,2.3.5h.5a7.6,7.6,0,0,1,5.9,7.3c0,17.6-60.3,24-60.3,59.3,0,20.7,18,34.4,45.8,34.4a68.5,68.5,0,0,0,38.8-11.6,20.8,20.8,0,0,0,20.8,10.7,49.8,49.8,0,0,0,24.7-6.5v-1a118.3,118.3,0,0,0,44,8.4c32.5,0,48.7-16.4,48.7-35.4C346.8,382.1,324,374.2,311.6,369.4ZM158.9,403c0-26.2,32.4-36.6,32.4-54.4,0-7.7-6.2-11.8-14.1-12.7,3.6-5.4,7.5-9.1,13.5-8.3,15.1,1.9,16.4,18.4,16.6,45h0l-.3,51v.2a40.8,40.8,0,0,1-19.6,5C169.8,428.8,158.9,418.5,158.9,403Z" transform="translate(-49.8 -137.2)"/></svg>